# xmcd
#
# Track frame offsets:
#	150
#	17325
#	32616
#	48845
#	66614
#	78669
#	96161
#	114529
#	126890
#	142696
#
# Disc length: 2088 seconds
#
# Revision: 0
# Processed by: cddbd v1.5.2PL0 Copyright (c) Steve Scherf et al.
# Submitted via: EZCDAudioConverter 4.0.0.1
#
DISCID=7d08260a
DTITLE=Ivo Fabijan i Ivona  - Najljepše su Hrvatica
DYEAR=2002
DGENRE=Domoljubne
TTITLE0=Najljepše su Hrvatice
TTITLE1=Ne čekaj me majko
TTITLE2=Stiga san judi
TTITLE3=Bećari su dobri ljudi
TTITLE4=Ima jedna duga cesta
TTITLE5=Stric Mata se vratio u liku
TTITLE6=Svi smo za Hrvatsku
TTITLE7=Vrati se, Ivo
TTITLE8=Kad sklopim oči
TTITLE9=Nema raja bez rodnoga kraja
EXTD=
EXTT0=
EXTT1=
EXTT2=
EXTT3=
EXTT4=
EXTT5=
EXTT6=
EXTT7=
EXTT8=
EXTT9=
PLAYORDER=
